<?xml version="1.0" encoding="UTF-8"?>
<svg id="Layer_2" data-name="Layer 2" xmlns="http://www.w3.org/2000/svg" viewBox="0 0 18.14 22.68">
  <defs>
    <style>
      .cls-1 {
        fill: #fff;
      }

      .cls-2 {
        fill: #e41d18;
      }
    </style>
  </defs>
  <g id="Layer_16" data-name="Layer 16">
    <g>
      <rect x="6.47" y="9.31" width="1.8" height="2.22"/>
      <path d="M14.17,4.59c-.4-.45-.85-.85-1.35-1.18-1.08-.72-2.37-1.13-3.75-1.13s-2.68,.42-3.75,1.13c-.5,.33-.95,.73-1.35,1.18-1.05,1.2-1.7,2.77-1.7,4.49-.02,5.04,4.98,9.56,6.8,11.04,1.83-1.48,6.83-6,6.8-11.03,0-1.72-.65-3.29-1.7-4.49ZM4.44,6.8c0-.14,.08-.27,.21-.34l2.55-1.28c.11-.05,.23-.05,.34,0l2.55,1.28c.13,.06,.21,.19,.21,.34v2.17h3.02c.21,0,.38,.17,.38,.38s-.17,.38-.38,.38h-1.32v.52h1.32c.21,0,.38,.17,.38,.38s-.17,.38-.38,.38h-1.32v.9c0,.21-.17,.38-.38,.38s-.38-.17-.38-.38v-.9h-.94v.9c0,.21-.17,.38-.38,.38H4.82c-.21,0-.38-.17-.38-.38V6.8Z"/>
      <rect x="10.3" y="9.73" width=".94" height=".52"/>
      <path d="M5.72,8.93c0-.21,.17-.38,.38-.38h2.55c.21,0,.38,.17,.38,.38v2.6h.52V7.04l-2.17-1.09-2.17,1.09v4.49h.52v-2.6Z"/>
      <path class="cls-2" d="M9.07,0C4.07,0,0,4.07,0,9.07c-.03,7.31,8.07,13.16,8.41,13.4,.19,.14,.42,.21,.66,.21s.47-.07,.66-.21c.34-.24,8.45-6.09,8.41-13.4C18.14,4.07,14.07,0,9.07,0Zm0,20.11c-1.83-1.48-6.83-6-6.8-11.04,0-1.72,.65-3.29,1.7-4.49,.4-.45,.85-.85,1.35-1.18,1.08-.71,2.37-1.13,3.75-1.13s2.68,.42,3.75,1.13c.5,.33,.95,.73,1.35,1.18,1.06,1.2,1.7,2.77,1.7,4.49,.02,5.03-4.98,9.55-6.8,11.03Z"/>
      <path class="cls-1" d="M4.82,12.28h5.1c.21,0,.38-.17,.38-.38v-.9h.94v.9c0,.21,.17,.38,.38,.38s.38-.17,.38-.38v-.9h1.32c.21,0,.38-.17,.38-.38s-.17-.38-.38-.38h-1.32v-.52h1.32c.21,0,.38-.17,.38-.38s-.17-.38-.38-.38h-3.02v-2.17c0-.14-.08-.27-.21-.34l-2.55-1.28c-.11-.05-.23-.05-.34,0l-2.55,1.28c-.13,.06-.21,.19-.21,.34v5.1c0,.21,.17,.38,.38,.38Zm5.48-2.55h.94v.52h-.94v-.52Zm-2.03,1.79h-1.8v-2.22h1.8v2.22Zm-3.07-4.49l2.17-1.09,2.17,1.09v4.49h-.52v-2.6c0-.21-.17-.38-.38-.38h-2.55c-.21,0-.38,.17-.38,.38v2.6h-.52V7.04Z"/>
    </g>
  </g>
</svg>