<svg id="Layer_1" data-name="Layer 1" xmlns="http://www.w3.org/2000/svg" viewBox="0 0 200 200"><defs><style>.cls-1{fill:#231f20;}</style></defs><title>Wondicon - UI (Free)</title><path class="cls-1" d="M75,175.69a5,5,0,0,1-4.51-2.85L24.8,77.15A5,5,0,0,1,25,72.53C25.6,71.41,41,45,75,45c29.25,0,36.93-3.06,45.67-18.19a5,5,0,0,1,8.53-.21l45.69,70.69a5,5,0,0,1-.19,5.69,60,60,0,0,1-15.65,13.75,51.71,51.71,0,0,1-42.79,5.74c-27.51-8.15-47.44,15.05-50,18.25l13.28,27.81A5,5,0,0,1,75,175.69ZM35,75.4l26.52,55.53c8.07-8.43,29.32-26.41,57.54-18.05,23.39,6.93,39.67-7.19,45.37-13.29L125,38.47C114.49,52.32,101.43,55,75,55A49.24,49.24,0,0,0,35,75.4Z"/><path class="cls-1" d="M62,97.05a5,5,0,0,1-4-8c.58-.8,14.74-19.54,60.56-11.68,19.41,3.34,23.5-14.25,23.67-15A5,5,0,0,1,152,64.53c-.06.28-6.42,27.65-35.13,22.72C77.82,80.55,66.12,94.86,66,95A4.93,4.93,0,0,1,62,97.05Z"/><path class="cls-1" d="M170.69,175.69H29.31a5,5,0,0,1,0-10H170.69a5,5,0,0,1,0,10Z"/></svg>