<?xml version="1.0" encoding="UTF-8"?>
<svg id="Layer_2" height="40px" width="40px" data-name="Layer 2" xmlns="http://www.w3.org/2000/svg" viewBox="">
  <defs>
    <style>
      .cls-1 {
        fill: #fff;
      }

      .cls-2 {
        fill: #e41d18;
      }

      .cls-3 {
        fill: #878787;
      }
    </style>
  </defs>
  <g id="Layer_16" data-name="Layer 16">
    <g>
      <path d="M10.65,7.74c.54,0,.98-.44,.98-.98s-.44-.98-.98-.98-.98,.44-.98,.98,.44,.98,.98,.98Z"/>
      <path d="M8.42,7.55c-.09-.25-.14-.51-.14-.79,0-.14,.01-.28,.04-.41-.02,.13-.04,.27-.04,.41,0,.28,.05,.54,.14,.79Z"/>
      <path d="M9.07,2.27c-3.75,0-6.8,3.05-6.8,6.8-.02,5.04,4.98,9.56,6.8,11.04,1.83-1.48,6.83-6,6.8-11.03,0-3.76-3.05-6.81-6.8-6.81Zm3.33,11.48H5.7c-.35,0-.64-.29-.64-.64V6.72c0-.35,.29-.64,.64-.64h2.55c.07,0,.14-.05,.17-.11-.04,.12-.08,.25-.1,.39,.02-.13,.06-.26,.1-.39,.3-.83,1.04-1.44,1.94-1.55,0,0,0,0,0,0,.03,0,.06,0,.08,0,0,0,0,0,0,0,.03,0,.06,0,.08,0,0,0,.01,0,.02,0,.03,0,.06,0,.09,0h0s0,0,0,0c.02,0,.04,0,.06,0,0,0,.01,0,.02,0,.01,0,.03,0,.04,0,0,0,0,0,.01,0,.02,0,.03,0,.05,0,0,0,0,0,0,0,.02,0,.03,0,.05,0,0,0,0,0,0,0,1.06,.11,1.9,.92,2.08,1.95,0,0,0,0,0,0,0,.02,0,.04,0,.05,0,0,0,0,0,.01,0,.02,0,.03,0,.05,0,0,0,.01,0,.02,0,.01,0,.03,0,.04v.02s0,.02,0,.04c0,0,0,.02,0,.03,0,.01,0,.02,0,.03,0,0,0,.02,0,.03,0,.01,0,.02,0,.03,0,0,0,.02,0,.03,0,0,0,.01,0,.02s0,.01,0,.02c0,0,0,.02,0,.03,0,.01,0,.02,0,.03,0,0,0,.01,0,.02,0,0,0,0,0,.01,0,0,0,.02,0,.03,0,.01,0,.02,0,.03,0,0,0,.02,0,.03,0,0,0,.02,0,.03,0,.01,0,.02,0,.03,0,0,0,.02,0,.02,0,.01,0,.03,0,.04,0,0,0,.01,0,.02,0,.02,0,.03,0,.05,0,0,0,0,0,0-.17,1.06-1.05,1.88-2.13,1.97h0s-.03,0-.04,0c0,0-.01,0-.02,0-.01,0-.02,0-.03,0,0,0-.02,0-.03,0,0,0-.02,0-.03,0,0,0-.01,0-.02,0,0,0,0,0,0,0,0,0,0,0-.01,0-.02,0-.05,0-.07,0,0,0,0,0-.01,0-.03,0-.05,0-.08,0,0,0,0,0,0,0-.03,0-.06,0-.09,0,0,0,0,0,0,0-.91-.1-1.66-.72-1.96-1.56-.03-.07-.09-.11-.17-.11h-1.62c-.12,0-.21,.1-.21,.21v1.36c0,.12,.1,.21,.21,.21h2.14c.38,0,.68,.3,.68,.68s-.3,.68-.68,.68h-2.14c-.12,0-.21,.1-.21,.21v1.38c0,.12,.1,.21,.21,.21h5.77c.38,0,.68,.3,.68,.68s-.3,.68-.68,.68Z"/>
      <path class="cls-3" d="M9.07,0C4.07,0,0,4.07,0,9.07c-.03,7.31,8.07,13.16,8.41,13.4,.19,.14,.42,.21,.66,.21s.47-.07,.66-.21c.34-.24,8.45-6.09,8.41-13.4C18.14,4.07,14.07,0,9.07,0Zm0,20.11c-1.83-1.48-6.83-6-6.8-11.04,0-3.75,3.05-6.8,6.8-6.8s6.8,3.05,6.8,6.81c.02,5.03-4.98,9.55-6.8,11.03Z"/>
      <path class="cls-1" d="M12.4,12.39H6.63c-.12,0-.21-.1-.21-.21v-1.38c0-.12,.1-.21,.21-.21h2.14c.38,0,.68-.3,.68-.68s-.3-.68-.68-.68h-2.14c-.12,0-.21-.1-.21-.21v-1.36c0-.12,.1-.21,.21-.21h1.62c.07,0,.14,.05,.17,.11-.09-.25-.14-.51-.14-.79,0-.14,.01-.28,.04-.41,.02-.13,.06-.26,.1-.39-.03,.07-.09,.11-.17,.11h-2.55c-.35,0-.64,.29-.64,.64v6.39c0,.35,.29,.64,.64,.64h6.7c.38,0,.68-.3,.68-.68s-.3-.68-.68-.68Z"/>
      <path class="cls-2" d="M8.42,7.55c.3,.84,1.05,1.45,1.96,1.56,0,0,0,0,0,0,.03,0,.06,0,.09,0,0,0,0,0,0,0,.03,0,.05,0,.08,0,0,0,0,0,.01,0,.02,0,.05,0,.07,0,0,0,0,0,.01,0,0,0,0,0,0,0,0,0,.01,0,.02,0,0,0,.02,0,.03,0,0,0,.02,0,.03,0,.01,0,.02,0,.03,0,0,0,.01,0,.02,0,.01,0,.03,0,.04,0h0c1.08-.09,1.96-.91,2.13-1.97,0,0,0,0,0,0,0-.02,0-.03,0-.05,0,0,0-.01,0-.02,0-.01,0-.03,0-.04,0,0,0-.02,0-.02,0-.01,0-.02,0-.03,0,0,0-.02,0-.03,0,0,0-.02,0-.03,0-.01,0-.02,0-.03,0,0,0-.02,0-.03,0,0,0,0,0-.01,0,0,0-.01,0-.02,0-.01,0-.02,0-.03,0,0,0-.02,0-.03,0,0,0-.01,0-.02s0-.01,0-.02c0-.01,0-.02,0-.03,0-.01,0-.02,0-.03,0,0,0-.02,0-.03,0-.01,0-.02,0-.03,0,0,0-.02,0-.03,0-.01,0-.02,0-.04v-.02s0-.03,0-.04c0,0,0-.01,0-.02,0-.02,0-.03,0-.05,0,0,0,0,0-.01,0-.02,0-.04,0-.05,0,0,0,0,0,0-.18-1.04-1.02-1.84-2.08-1.95,0,0,0,0,0,0-.02,0-.03,0-.05,0,0,0,0,0,0,0-.02,0-.03,0-.05,0,0,0,0,0-.01,0-.01,0-.03,0-.04,0,0,0-.01,0-.02,0-.02,0-.04,0-.06,0,0,0,0,0,0,0h0s-.06,0-.09,0c0,0-.01,0-.02,0-.03,0-.06,0-.08,0,0,0,0,0,0,0-.03,0-.06,0-.08,0,0,0,0,0,0,0-.9,.11-1.65,.72-1.94,1.55-.04,.12-.08,.25-.1,.39-.02,.13-.04,.27-.04,.41,0,.28,.05,.54,.14,.79Zm2.23-1.77c.54,0,.98,.44,.98,.98s-.44,.98-.98,.98-.98-.44-.98-.98,.44-.98,.98-.98Z"/>
    </g>
  </g>
</svg>