<svg width="326" height="326" viewBox="0 0 326 326" fill="none" xmlns="http://www.w3.org/2000/svg">
<path d="M101.914 0C45.7209 0 0.0011029 45.7198 0.0011029 101.847C-0.365232 183.948 90.6479 249.666 94.5214 252.405C96.6774 253.942 99.2598 254.771 101.908 254.771C104.557 254.771 107.139 253.942 109.295 252.405C113.168 249.666 204.188 183.948 203.815 101.907C203.821 45.7198 158.102 0 101.914 0Z" fill="black"/>
<path d="M101.914 0C45.7209 0 0.0011029 45.7198 0.0011029 101.847C-0.365232 183.948 90.6479 249.666 94.5214 252.405C96.6774 253.942 99.2598 254.771 101.908 254.771C104.557 254.771 107.139 253.942 109.295 252.405C113.168 249.666 204.188 183.948 203.815 101.907C203.821 45.7198 158.102 0 101.914 0ZM101.914 225.92C81.3934 209.261 25.2121 158.485 25.4824 101.913C25.4824 59.7606 59.7617 25.4813 101.914 25.4813C144.067 25.4813 178.346 59.7606 178.346 101.979C178.616 158.515 122.447 209.279 101.914 225.926V225.92Z" fill="#878787"/>
<path d="M120.015 75.9634C120.015 75.9634 127.197 82.1611 128.747 90.1844C130.831 100.964 137.515 110.159 142.638 115.876C146.001 119.623 146.019 125.527 142.698 129.322L138.95 133.604C136.536 136.361 131.96 138.174 126.435 133.22C126.435 133.22 112.556 130.691 107.379 130.091C101.026 129.352 97.3442 130.247 93.873 124.68C92.0473 121.881 90.576 115.035 91.7891 112.002C90.4018 113.798 89.1227 118.512 91.2366 125.479C80.8711 130.457 66.3318 144.414 66.3318 144.414L58.6328 68.1683C58.6328 68.1683 90.7441 77.8131 96.011 75.8073C96.011 75.8073 95.1762 74.5642 94.8519 72.6904C93.843 66.8891 99.2599 66.1685 101.308 64.511C103.602 62.4451 106.262 61.0638 106.43 56.9681C111.523 61.7424 107.445 67.9761 107.445 67.9761L114.784 69.982C114.784 69.982 120.393 72.0479 122.417 64.1566C126.945 73.5252 119.997 75.9694 119.997 75.9694L120.015 75.9634Z" fill="white"/>
</svg>
