<svg height="30px" width="30px" viewBox="0 0 340 425" fill="none" xmlns="http://www.w3.org/2000/svg">
<g clip-path="url(#clip0_2392_105)">
<path d="M169.7 0C76.1299 0 -0.000116635 76.13 -0.000116635 169.59C-0.610117 306.3 150.94 415.73 157.39 420.29C160.98 422.85 165.28 424.23 169.69 424.23C174.1 424.23 178.4 422.85 181.99 420.29C188.44 415.73 340 306.3 339.38 169.69C339.39 76.13 263.26 0 169.7 0Z" fill="black"/>
<path d="M169.7 0C76.1299 0 -0.000116635 76.13 -0.000116635 169.59C-0.610117 306.3 150.94 415.73 157.39 420.29C160.98 422.85 165.28 424.23 169.69 424.23C174.1 424.23 178.4 422.85 181.99 420.29C188.44 415.73 340 306.3 339.38 169.69C339.39 76.13 263.26 0 169.7 0ZM169.7 376.19C135.53 348.45 41.9799 263.9 42.4299 169.7C42.4299 99.51 99.5099 42.43 169.7 42.43C239.89 42.43 296.97 99.51 296.97 169.81C297.42 263.95 203.89 348.48 169.7 376.2V376.19Z" fill="#7C7C7C"/>
<path d="M199.84 126.49C199.84 126.49 211.8 136.81 214.38 150.17C217.85 168.12 228.98 183.43 237.51 192.95C243.11 199.19 243.14 209.02 237.61 215.34L231.37 222.47C227.35 227.06 219.73 230.08 210.53 221.83C210.53 221.83 187.42 217.62 178.8 216.62C168.22 215.39 162.09 216.88 156.31 207.61C153.27 202.95 150.82 191.55 152.84 186.5C150.53 189.49 148.4 197.34 151.92 208.94C134.66 217.23 110.45 240.47 110.45 240.47L97.6299 113.51C97.6299 113.51 151.1 129.57 159.87 126.23C159.87 126.23 158.48 124.16 157.94 121.04C156.26 111.38 165.28 110.18 168.69 107.42C172.51 103.98 176.94 101.68 177.22 94.86C185.7 102.81 178.91 113.19 178.91 113.19L191.13 116.53C191.13 116.53 200.47 119.97 203.84 106.83C211.38 122.43 199.81 126.5 199.81 126.5L199.84 126.49Z" fill="white"/>
</g>
<defs>
<clipPath id="clip0_2392_105">
<rect width="339.39" height="424.23" fill="white"/>
</clipPath>
</defs>
</svg>
