<?xml version="1.0" encoding="UTF-8"?>
<svg id="Layer_2" data-name="Layer 2" height="30px" width="30px" xmlns="http://www.w3.org/2000/svg" viewBox="">
  <defs>
    <style>
      .cls-1 {
        fill: #fff;
      }

      .cls-2 {
        fill: #878787;
      }
    </style>
  </defs>
  <g id="Layer_16" data-name="Layer 16">
    <g>
      <path d="M8.38,5.66v-.26h-.04c-.08,0-.17-.03-.23-.09-.06-.06-.1-.14-.1-.23,0-.18,.14-.33,.32-.33h1.47s0,0,0,0c.08,0,.17,.03,.23,.09,.06,.06,.1,.14,.1,.23,0,.18-.15,.33-.32,.33h-.04v.27h.52l.23-.93c-.94-.34-1.96-.34-2.9,0l.23,.93h.52Z"/>
      <rect x="9.03" y="5.4" width=".08" height=".26"/>
      <path d="M10.36,6.31h-2.59c-.35,0-.68,.14-.93,.39-.24,.24-.39,.58-.39,.93v3.58c0,.73,.59,1.33,1.33,1.33h2.57c.73,0,1.33-.59,1.33-1.33v-3.58c0-.35-.14-.69-.39-.93-.25-.25-.58-.39-.93-.39Zm.16,4.01c-.15,.37-.48,.7-.89,.87-.27,.11-.54,.15-.78,.09-.09-.02-.17-.05-.25-.08-.26,.16-.52,.25-.71,.31-.03,.01-.06,.02-.1,.02-.05,0-.1-.01-.15-.04-.08-.04-.13-.11-.16-.19-.03-.08-.02-.17,.02-.25s.11-.13,.19-.16c.14-.04,.26-.09,.37-.14-.14-.21-.25-.54-.17-.99,.06-.35,.26-.58,.47-.82l.03-.03c.25-.29,.47-.62,.34-1.39-.02-.13,.04-.26,.15-.33,.11-.07,.25-.07,.36,0,.8,.55,1.8,1.85,1.28,3.14Z"/>
      <path d="M9.07,2.27c-3.75,0-6.8,3.05-6.8,6.8-.02,5.04,4.98,9.56,6.8,11.04,1.83-1.48,6.83-6,6.8-11.03,0-3.76-3.05-6.81-6.8-6.81Zm3.26,8.94c0,.42-.13,.81-.37,1.15v.62c0,.58-.47,1.04-1.04,1.04h-3.7c-.58,0-1.04-.47-1.04-1.04v-.62c-.24-.34-.37-.73-.37-1.15v-3.58c0-.53,.2-1.02,.58-1.39,.23-.23,.51-.4,.82-.49l-.29-1.13c-.05-.18,.07-.33,.2-.38l.13-.05c1.17-.47,2.46-.47,3.63,0l.14,.05c.15,.06,.24,.22,.2,.38l-.29,1.13c.31,.09,.59,.26,.82,.49,.37,.37,.58,.87,.58,1.39v3.58Z"/>
      <path d="M8.81,9.4c-.13,.15-.25,.28-.28,.46-.03,.2,0,.37,.07,.51,.24-.25,.42-.56,.53-.97,.04-.14,.17-.24,.31-.24,.03,0,.06,0,.09,.01,.17,.05,.27,.23,.23,.4-.12,.42-.29,.77-.52,1.06,.04-.01,.09-.03,.14-.05,.25-.1,.45-.3,.54-.51,.16-.41,.13-.85-.11-1.31-.1-.19-.23-.38-.39-.56-.06,.53-.29,.84-.53,1.12l-.07,.08Z"/>
      <path d="M7.79,13.18c-.34,0-.67-.08-.96-.25v.04c0,.22,.18,.39,.39,.39h3.7c.22,0,.39-.18,.39-.39v-.04c-.29,.16-.62,.25-.96,.25h-2.57Z"/>
      <polygon points="7.85 11.37 7.85 11.37 7.85 11.37 7.85 11.37"/>
      <path class="cls-2" d="M9.07,0C4.07,0,0,4.07,0,9.07c-.03,7.31,8.07,13.16,8.41,13.4,.19,.14,.42,.21,.66,.21s.47-.07,.66-.21c.34-.24,8.45-6.09,8.41-13.4C18.14,4.07,14.07,0,9.07,0Zm0,20.11c-1.83-1.48-6.83-6-6.8-11.04,0-3.75,3.05-6.8,6.8-6.8s6.8,3.05,6.8,6.81c.02,5.03-4.98,9.55-6.8,11.03Z"/>
      <path class="cls-1" d="M10.73,5.99l-.14-.03,.36-1.41s0-.04-.03-.05l-.14-.05c-.55-.22-1.13-.33-1.71-.33s-1.16,.11-1.71,.33l-.14,.05s-.03,.02-.02,.05l.36,1.41-.14,.03c-.31,.07-.6,.22-.82,.45-.32,.32-.49,.74-.49,1.19v3.58c0,.37,.12,.72,.34,1.02l.03,.04v.71c0,.42,.34,.76,.76,.76h3.7c.42,0,.76-.34,.76-.76v-.71l.03-.04c.22-.3,.34-.65,.34-1.02v-3.58c0-.45-.18-.87-.49-1.19-.23-.23-.51-.38-.82-.45Zm-3.45-1.43l.12-.05c1.08-.43,2.26-.43,3.34,0l.12,.05-.35,1.39h-1.03v-.83h.33s.04-.02,.04-.04h0l-.04-.04h-1.47s-.04,.03-.04,.05l.04,.04h.33s0,.83,0,.83h-1.03l-.35-1.39Zm2.11,.56v.83h-.65v-.83h.65Zm2.2,7.85c0,.37-.3,.68-.68,.68h-3.7c-.37,0-.68-.3-.68-.68v-.58l.23,.17c.29,.22,.65,.34,1.02,.34h2.57c.37,0,.72-.12,1.02-.34l.23-.17v.58Zm.37-1.77c0,.89-.72,1.61-1.61,1.61h-2.57c-.89,0-1.61-.72-1.61-1.61v-3.58c0-.42,.17-.83,.47-1.13,.3-.3,.7-.47,1.13-.47h2.59c.43,0,.83,.17,1.13,.47,.3,.3,.47,.71,.47,1.13v3.58Z"/>
      <path class="cls-1" d="M8.52,10.92l.07-.04,.07,.04c.08,.04,.17,.07,.26,.1,.18,.04,.39,.02,.6-.08,.33-.14,.61-.41,.73-.71,.46-1.13-.45-2.29-1.18-2.8-.01,0-.03,0-.05,0,0,0-.01,0-.02,.02l.36,.33c.28,.26,.51,.56,.67,.87,.28,.53,.32,1.07,.12,1.55-.12,.29-.37,.54-.69,.67-.2,.08-.39,.11-.55,.07-.03,0-.04,0-.06-.01l-.22-.07,.17-.16c.31-.29,.52-.68,.66-1.17,0-.02,0-.05-.03-.05-.02,0-.05,0-.05,.03-.14,.51-.39,.92-.73,1.21l-.1,.09-.09-.09c-.21-.21-.29-.52-.24-.87,.04-.26,.2-.43,.35-.6l.07-.08c.26-.29,.49-.61,.47-1.23l-.09-.19c.06,.71-.18,1.06-.44,1.36l-.03,.04c-.19,.22-.36,.41-.4,.68-.06,.37,.01,.68,.22,.9l.12,.13-.15,.09c-.17,.1-.35,.17-.57,.24h0s-.03,.05-.03,.05l.09,.16h0l-.04-.13c.2-.06,.46-.16,.71-.32Z"/>
      <path class="cls-1" d="M9.24,7.19c-.11-.08-.25-.08-.36,0-.11,.07-.17,.2-.15,.33,.13,.77-.09,1.09-.34,1.39l-.03,.03c-.21,.24-.41,.47-.47,.82-.08,.46,.03,.78,.17,.99-.11,.05-.23,.1-.37,.14-.08,.03-.15,.08-.19,.16s-.05,.17-.02,.25c.03,.08,.08,.15,.16,.19,.05,.03,.1,.04,.15,.04,.03,0,.07,0,.1-.02,.2-.06,.45-.15,.71-.31,.08,.04,.16,.06,.25,.08,.23,.06,.51,.02,.78-.09,.4-.17,.73-.5,.89-.87,.52-1.29-.48-2.58-1.28-3.14Zm1.15,3.08c-.15,.36-.47,.65-.81,.79-.24,.1-.48,.13-.69,.08-.1-.02-.2-.06-.29-.11-.26,.17-.52,.26-.75,.34h0s0,0,0,0c-.1,.03-.2-.02-.23-.12-.03-.1,.02-.2,.12-.23,.17-.05,.35-.12,.54-.23-.21-.23-.32-.57-.25-1.02,.05-.33,.25-.54,.47-.79,.26-.3,.52-.66,.38-1.5-.01-.07,.02-.15,.08-.19,.06-.04,.14-.04,.2,0,.83,.57,1.7,1.79,1.23,2.97Z"/>
      <path class="cls-1" d="M7.79,13.04c-.41,0-.79-.14-1.1-.37v.3c0,.3,.24,.53,.53,.53h3.7c.3,0,.53-.24,.53-.53v-.3c-.31,.23-.69,.37-1.1,.37h-2.57Zm3.53-.07c0,.22-.18,.39-.39,.39h-3.7c-.22,0-.39-.18-.39-.39v-.04c.29,.16,.62,.25,.96,.25h2.57c.34,0,.67-.08,.96-.25v.04Z"/>
      <path class="cls-1" d="M10.36,6.17h-2.59c-.39,0-.76,.15-1.03,.43-.27,.27-.43,.64-.43,1.03v3.58c0,.81,.66,1.47,1.47,1.47h2.57c.81,0,1.47-.66,1.47-1.47v-3.58c0-.39-.15-.76-.43-1.03-.27-.27-.64-.43-1.03-.43Zm1.32,5.04c0,.73-.59,1.33-1.33,1.33h-2.57c-.73,0-1.33-.59-1.33-1.33v-3.58c0-.35,.14-.69,.39-.93,.25-.25,.58-.39,.93-.39h2.59c.35,0,.68,.14,.93,.39,.24,.24,.39,.58,.39,.93v3.58Z"/>
      <path class="cls-1" d="M10.93,5.75l.29-1.13c.04-.16-.04-.32-.2-.38l-.14-.05c-1.17-.47-2.46-.47-3.63,0l-.13,.05c-.13,.05-.24,.2-.2,.38l.29,1.13c-.31,.09-.59,.26-.82,.49-.37,.37-.58,.87-.58,1.39v3.58c0,.42,.13,.81,.37,1.15v.62c0,.58,.47,1.04,1.04,1.04h3.7c.58,0,1.04-.47,1.04-1.04v-.62c.24-.34,.37-.73,.37-1.15v-3.58c0-.53-.2-1.02-.58-1.39-.23-.23-.51-.4-.82-.49Zm1.25,5.46c0,.41-.14,.79-.37,1.1v.67c0,.5-.4,.9-.9,.9h-3.7c-.5,0-.9-.4-.9-.9v-.67c-.23-.31-.37-.69-.37-1.1v-3.58c0-.48,.19-.95,.53-1.29,.25-.25,.56-.42,.89-.49l-.32-1.27c-.03-.11,.05-.19,.11-.22,.04-.02,.06-.02,.14-.05,1.13-.45,2.4-.45,3.53,0,.08,.03,.1,.04,.14,.05,.09,.03,.13,.13,.11,.21l-.32,1.27c.34,.07,.65,.24,.89,.49,.34,.34,.53,.81,.53,1.29v3.58Z"/>
      <path class="cls-1" d="M8.78,9.23c-.17,.19-.34,.35-.38,.61-.05,.33,.04,.58,.2,.74,.28-.24,.53-.59,.68-1.14,.03-.1,.13-.15,.23-.13,.1,.03,.15,.13,.13,.23-.16,.57-.41,.96-.7,1.24,.01,0,.03,0,.05,.01,.14,.03,.3,0,.46-.06,.26-.11,.5-.32,.61-.59,.2-.49,.11-.99-.12-1.43-.16-.32-.4-.6-.64-.83h0c.02,.71-.25,1.06-.51,1.36Zm1.03-.46c.24,.46,.28,.91,.11,1.31-.09,.22-.29,.41-.54,.51-.05,.02-.09,.04-.14,.05,.23-.29,.41-.65,.52-1.06,.05-.17-.05-.35-.23-.4-.03,0-.06-.01-.09-.01-.14,0-.27,.09-.31,.24-.11,.4-.29,.72-.53,.97-.08-.14-.11-.31-.07-.51,.03-.18,.14-.31,.28-.46l.07-.08c.24-.27,.47-.59,.53-1.12,.16,.18,.29,.37,.39,.56Z"/>
      <path class="cls-1" d="M9.25,5.26h-.37v.54h.37v-.54Zm-.14,.4h-.08v-.26h.08v.26Z"/>
      <path class="cls-1" d="M8.52,5.8v-.54h-.18c-.1,0-.18-.08-.18-.18,0-.1,.08-.18,.18-.18h1.47c.1,0,.18,.07,.18,.17,0,.1-.08,.18-.18,.18h-.18v.55s.76,0,.77,0l.29-1.16c-1.04-.41-2.2-.41-3.23,0l.29,1.16s.77,0,.77,0Zm2-1.07l-.23,.93h-.52v-.27h.04c.18,0,.32-.15,.32-.33,0-.09-.03-.17-.1-.23-.06-.06-.14-.09-.23-.09h-1.47c-.18,0-.32,.16-.32,.33,0,.09,.03,.17,.1,.23,.06,.06,.14,.09,.23,.09h.04v.26h-.52l-.23-.93c.94-.34,1.96-.34,2.9,0Z"/>
      <path class="cls-1" d="M9.16,7.3c-.06-.04-.14-.04-.2,0-.06,.04-.09,.11-.08,.19,.14,.85-.12,1.21-.38,1.5-.21,.24-.41,.46-.47,.79-.07,.45,.04,.79,.25,1.02-.19,.11-.37,.18-.54,.23-.1,.03-.15,.13-.12,.23,.03,.1,.13,.15,.23,.12l-.09-.16,.03-.05h0c.22-.07,.4-.15,.57-.24l.15-.09-.12-.13c-.2-.22-.28-.53-.22-.9,.04-.27,.21-.46,.4-.68l.03-.04c.26-.3,.5-.65,.44-1.36l.09,.19c.01,.62-.22,.93-.47,1.23l-.07,.08c-.15,.17-.3,.34-.35,.6-.06,.35,.03,.65,.24,.87l.09,.09,.1-.09c.34-.29,.58-.7,.73-1.21,0-.02,.03-.03,.05-.03,.02,0,.03,.03,.03,.05-.14,.49-.35,.88-.66,1.17l-.17,.16,.22,.07s.03,0,.06,.01c.16,.04,.35,.01,.55-.07,.31-.13,.57-.38,.69-.67,.19-.48,.15-1.02-.12-1.55-.16-.31-.39-.61-.67-.87l-.36-.33s0-.01,.02-.02c.01,0,.03,0,.05,0,.72,.5,1.64,1.66,1.18,2.8-.12,.31-.4,.57-.73,.71-.21,.09-.42,.12-.6,.08-.09-.02-.18-.05-.26-.1l-.07-.04-.07,.04c-.25,.17-.51,.26-.71,.32l.04,.13h0c.23-.07,.49-.17,.75-.34,.09,.05,.19,.08,.29,.11,.21,.05,.45,.02,.69-.08,.34-.14,.66-.43,.81-.79,.48-1.18-.4-2.39-1.23-2.97Zm.77,1.4c.23,.44,.32,.94,.12,1.43-.11,.27-.36,.48-.61,.59-.16,.07-.32,.1-.46,.06-.02,0-.03,0-.05-.01,.29-.27,.54-.66,.7-1.24,.03-.1-.03-.2-.13-.23-.1-.03-.2,.03-.23,.13-.15,.54-.4,.9-.68,1.14-.16-.16-.25-.41-.2-.74,.04-.26,.22-.41,.38-.61,.26-.3,.53-.65,.51-1.36h0c.25,.23,.48,.51,.64,.83Z"/>
      <path class="cls-1" d="M10.35,12.9h-2.57c-.37,0-.72-.12-1.02-.34l-.23-.17v.58c0,.37,.3,.68,.68,.68h3.7c.37,0,.68-.3,.68-.68v-.58l-.23,.17c-.29,.22-.65,.34-1.02,.34Zm1.1,.07c0,.3-.24,.53-.53,.53h-3.7c-.3,0-.53-.24-.53-.53v-.3c.31,.23,.69,.37,1.1,.37h2.57c.41,0,.79-.14,1.1-.37v.3Z"/>
      <path class="cls-1" d="M10.36,6.03h-2.59c-.43,0-.83,.17-1.13,.47-.3,.3-.47,.71-.47,1.13v3.58c0,.89,.72,1.61,1.61,1.61h2.57c.89,0,1.61-.72,1.61-1.61v-3.58c0-.42-.17-.83-.47-1.13-.3-.3-.7-.47-1.13-.47Zm1.46,5.18c0,.81-.66,1.47-1.47,1.47h-2.57c-.81,0-1.47-.66-1.47-1.47v-3.58c0-.39,.15-.76,.43-1.03,.27-.27,.64-.43,1.03-.43h2.59c.39,0,.76,.15,1.03,.43,.27,.27,.43,.64,.43,1.03v3.58Z"/>
      <path class="cls-1" d="M8.66,5.94v-.83h-.33s-.04-.04-.04-.04c0-.02,.02-.04,.04-.04h1.47s.04,.03,.04,.03h0s-.02,.04-.04,.04h-.33v.83h1.03l.35-1.39-.12-.05c-1.08-.43-2.26-.43-3.34,0l-.12,.05,.35,1.39h1.03Zm2.03-1.3l-.29,1.16s-.77,0-.77,0v-.55h.18c.1,0,.18-.08,.18-.19,0-.1-.08-.18-.18-.18h-1.47c-.1,0-.18,.09-.18,.19,0,.1,.08,.18,.18,.18h.18s0,.54,0,.54c0,0-.76,0-.77,0l-.29-1.16c1.04-.41,2.2-.41,3.23,0Z"/>
      <path class="cls-1" d="M9.4,5.94v-.83h-.65v.83h.65Zm-.51-.68h.37v.54h-.37v-.54Z"/>
      <path class="cls-1" d="M10.76,5.85l.32-1.27c.02-.09-.03-.18-.11-.21-.04-.01-.06-.02-.14-.05-1.13-.45-2.4-.45-3.53,0-.08,.03-.1,.04-.14,.05-.06,.02-.14,.11-.11,.22l.32,1.27c-.34,.07-.65,.24-.89,.49-.34,.34-.53,.81-.53,1.29v3.58c0,.41,.14,.79,.37,1.1v.67c0,.5,.4,.9,.9,.9h3.7c.5,0,.9-.4,.9-.9v-.67c.23-.31,.37-.69,.37-1.1v-3.58c0-.48-.19-.95-.53-1.29-.25-.25-.56-.42-.89-.49Zm1.28,5.36c0,.37-.12,.72-.34,1.02l-.03,.04v.71c0,.42-.34,.76-.76,.76h-3.7c-.42,0-.76-.34-.76-.76v-.71l-.03-.04c-.22-.3-.34-.65-.34-1.02v-3.58c0-.45,.18-.87,.49-1.19,.23-.23,.51-.38,.82-.45l.14-.03-.36-1.41s.02-.05,.02-.05l.14-.05c.55-.22,1.13-.33,1.71-.33s1.16,.11,1.71,.33l.14,.05s.03,.03,.03,.05l-.36,1.41,.14,.03c.31,.07,.6,.22,.82,.45,.32,.32,.49,.74,.49,1.19v3.58Z"/>
    </g>
  </g>
</svg>