<?xml version="1.0" encoding="UTF-8"?>
<svg id="Layer_2" data-name="Layer 2" height="30px" width="30px" xmlns="http://www.w3.org/2000/svg" viewBox="">
  <defs>
    <style>
      .cls-1 {
        fill: #fff;
      }

      .cls-2 {
        fill: #e41d18;
      }
    </style>
  </defs>
  <g id="Layer_16" data-name="Layer 16">
    <g>
      <path d="M9.07,2.27c-3.75,0-6.8,3.05-6.8,6.8-.02,5.04,4.98,9.56,6.8,11.04,1.83-1.48,6.83-6,6.8-11.03,0-3.76-3.05-6.81-6.8-6.81Zm2.83,5.67v3.02l-1.13,.38-1.17-2.08c-.1-.17-.37-.09-.34,.12l.38,3.47-3.78-1.51,.43-3.05c.09-.62,.4-1.19,.88-1.61,.48-.41,1.08-.64,1.71-.64h3.02l-.6,.9c.36,.19,.6,.56,.6,.99Z"/>
      <path class="cls-2" d="M9.07,0C4.07,0,0,4.07,0,9.07c-.03,7.31,8.07,13.16,8.41,13.4,.19,.14,.42,.21,.66,.21s.47-.07,.66-.21c.34-.24,8.45-6.09,8.41-13.4C18.14,4.07,14.07,0,9.07,0Zm0,20.11c-1.83-1.48-6.83-6-6.8-11.04,0-3.75,3.05-6.8,6.8-6.8s6.8,3.05,6.8,6.81c.02,5.03-4.98,9.55-6.8,11.03Z"/>
      <path class="cls-1" d="M8.88,6.05c-.63,0-1.24,.23-1.71,.64-.48,.41-.79,.98-.88,1.61l-.43,3.05,3.78,1.51-.38-3.47c-.03-.2,.25-.29,.34-.12l1.17,2.08,1.13-.38v-3.02c0-.43-.24-.8-.6-.99l.6-.9h-3.02Z"/>
    </g>
  </g>
</svg>