<svg width="326" height="327" viewBox="0 0 326 327" fill="none" xmlns="http://www.w3.org/2000/svg">
<path d="M101.914 0.228027C45.7209 0.228027 0.0011029 45.9478 0.0011029 102.075C-0.365232 184.176 90.6479 249.894 94.5214 252.633C96.6774 254.17 99.2598 254.999 101.908 254.999C104.557 254.999 107.139 254.17 109.295 252.633C113.168 249.894 204.188 184.176 203.815 102.135C203.821 45.9478 158.102 0.228027 101.914 0.228027Z" fill="black"/>
<path d="M101.914 0.228027C45.7209 0.228027 0.0011029 45.9478 0.0011029 102.075C-0.365232 184.176 90.6479 249.894 94.5214 252.633C96.6774 254.17 99.2598 254.999 101.908 254.999C104.557 254.999 107.139 254.17 109.295 252.633C113.168 249.894 204.188 184.176 203.815 102.135C203.821 45.9478 158.102 0.228027 101.914 0.228027ZM101.914 226.148C81.3934 209.489 25.2121 158.713 25.4824 102.141C25.4824 59.9886 59.7617 25.7093 101.914 25.7093C144.067 25.7093 178.346 59.9886 178.346 102.207C178.616 158.743 122.447 209.507 101.914 226.154V226.148Z" fill="#E31B17"/>
<path d="M120.015 76.1915C120.015 76.1915 127.197 82.3892 128.747 90.4125C130.831 101.192 137.515 110.387 142.638 116.104C146.001 119.851 146.019 125.755 142.698 129.55L138.95 133.832C136.536 136.589 131.96 138.402 126.435 133.448C126.435 133.448 112.556 130.92 107.379 130.319C101.026 129.58 97.3442 130.475 93.873 124.908C92.0473 122.109 90.576 115.263 91.7891 112.23C90.4018 114.026 89.1227 118.74 91.2366 125.707C80.8711 130.685 66.3318 144.642 66.3318 144.642L58.6328 68.3964C58.6328 68.3964 90.7441 78.0412 96.011 76.0354C96.011 76.0354 95.1762 74.7922 94.8519 72.9185C93.843 67.1172 99.2599 66.3966 101.308 64.7391C103.602 62.6732 106.262 61.2919 106.43 57.1962C111.523 61.9705 107.445 68.2042 107.445 68.2042L114.784 70.2101C114.784 70.2101 120.393 72.2759 122.417 64.3847C126.945 73.7533 119.997 76.1975 119.997 76.1975L120.015 76.1915Z" fill="white"/>
</svg>
